<?xml version="1.0" standalone="no"?><!DOCTYPE svg PUBLIC "-//W3C//DTD SVG 1.1//EN" "http://www.w3.org/Graphics/SVG/1.1/DTD/svg11.dtd"><svg t="1600257107660" class="icon" viewBox="0 0 1024 1024" version="1.1" xmlns="http://www.w3.org/2000/svg" p-id="5218" xmlns:xlink="http://www.w3.org/1999/xlink" width="200" height="200"><defs><style type="text/css"></style></defs><path d="M256 735.9c-17.7 0-32-14.3-32-32V447.7c0-17.7 14.3-32 32-32s32 14.3 32 32v256.2c0 17.7-14.3 32-32 32z m170.7 0c-17.7 0-32-14.3-32-32V256c0-17.7 14.3-32 32-32s32 14.3 32 32v447.9c0 17.7-14.3 32-32 32z m170.7 0c-17.7 0-32-14.3-32-32V447.7c0-17.7 14.3-32 32-32s32 14.3 32 32v256.2c0 17.7-14.3 32-32 32z m170.7 0c-17.7 0-32-14.3-32-32V256c0-17.7 14.3-32 32-32s32 14.3 32 32v447.9c0 17.7-14.3 32-32 32z" p-id="5219" fill="#707070"></path></svg>