<?xml version="1.0" standalone="no"?><!DOCTYPE svg PUBLIC "-//W3C//DTD SVG 1.1//EN" "http://www.w3.org/Graphics/SVG/1.1/DTD/svg11.dtd"><svg t="1600255472232" class="icon" viewBox="0 0 1024 1024" version="1.1" xmlns="http://www.w3.org/2000/svg" p-id="2728" xmlns:xlink="http://www.w3.org/1999/xlink" width="200" height="200"><defs><style type="text/css"></style></defs><path d="M512 64.095C264.63 64.095 64.095 264.626 64.095 512c0 247.369 200.535 447.905 447.905 447.905 247.372 0 447.905-200.536 447.905-447.905 0-247.373-200.533-447.905-447.905-447.905z m0 863.818C282.298 927.913 96.087 741.702 96.087 512 96.087 282.297 282.298 96.087 512 96.087c229.703 0 415.913 186.21 415.913 415.913-0.001 229.702-186.21 415.913-415.913 415.913zM401.084 667.969L678.904 512l-277.82-155.97z" p-id="2729"></path></svg>